{"title":"Cocktail 2012 Hindi DvDrip 720p x264...Hon3y","uid":7661172,"size":951215506,"categoryP":"video","categoryS":"hd___movies","magnet":"?xt=urn:btih:88fb5e79e0e3cba87f12caf9b3c5d1cccc24e57a&amp;dn=Cocktail+2012+Hindi+DvDrip+720p+x264...Hon3y&amp;tr=udp%3A%2F%2Ftracker.openbittorrent.com%3A80&amp;tr=udp%3A%2F%2Fopen.demonii.com%3A1337&amp;tr=udp%3A%2F%2Ftracker.coppersurfer.tk%3A6969&amp;tr=udp%3A%2F%2Fexodus.desync.com%3A6969","seeders":0,"leechers":0,"uploader":"honey8ee","files":-1,"time":1348309680,"description":" &lt;a href=&quot;http://www.imdb.com/title/tt2168910/&quot; rel=&quot;nofollow&quot; target=&quot;_NEW&quot;&gt;http://www.imdb.com/title/tt2168910/&lt;/a&gt;\n &lt;a href=&quot;\nhttp://en.wikipedia.org/wiki/Cocktail_(2012_film)&quot; rel=&quot;nofollow&quot; target=&quot;_NEW&quot;&gt;\nhttp://en.wikipedia.org/wiki/Cocktail_(2012_film)&lt;/a&gt;\n\n\nFormat                                   : Matroska\nFormat version                           : Version 2\nFile size                                : 895 MiB\nDuration                                 : 2h 24mn\nOverall bit rate                         : 864 Kbps\n\n\nVideo\nID                                       : 1\nFormat                                   : AVC\nFormat/Info                              : Advanced Video Codec\nFormat profile                           : &lt;a class=&quot;__cf_email__&quot; href=&quot;/cdn-cgi/l/email-protection&quot; data-cfemail=&quot;357d5c525d7579011b04&quot;&gt;[email&amp;#160;protected]&lt;/a&gt;&lt;script cf-hash='f9e31' type=&quot;text/javascript&quot;&gt;\n/* &lt;![CDATA[ */!function(){try{var t=&quot;currentScript&quot;in document?document.currentScript:function(){for(var t=document.getElementsByTagName(&quot;script&quot;),e=t.length;e--;)if(t[e].getAttribute(&quot;cf-hash&quot;))return t[e]}();if(t&amp;&amp;t.previousSibling){var e,r,n,i,c=t.previousSibling,a=c.getAttribute(&quot;data-cfemail&quot;);if(a){for(e=&quot;&quot;,r=parseInt(a.substr(0,2),16),n=2;a.length-n;n+=2)i=parseInt(a.substr(n,2),16)^r,e+=String.fromCharCode(i);e=document.createTextNode(e),c.parentNode.replaceChild(e,c)}}}catch(u){}}();/* ]]&gt; */&lt;/script&gt;\nFormat settings, CABAC                   : Yes\nFormat settings, ReFrames                : 4 frames\nMuxing mode                              : Header stripping\nCodec ID                                 : V_MPEG4/ISO/AVC\nDuration                                 : 2h 24mn\nBit rate                                 : 800 Kbps\nWidth                                    : 1 280 pixels\nHeight                                   : 544 pixels\nDisplay aspect ratio                     : 2.35:1\nOriginal display aspect ratio            : 2.35:1\nFrame rate                               : 23.976 fps\nColor space                              : YUV\nChroma subsampling                       : 4:2:0\nBit depth                                : 8 bits\nStream size                              : 811 MiB (91%)\n\n\nAudio\nID                                       : 2\nFormat                                   : AC-3\nBit rate mode                            : Constant\nBit rate                                 : 64.0 Kbps\nChannel(s)                               : 2 channels\nChannel positions                        : Front: L R\nSampling rate                            : 48.0 KHz\nBit depth                                : 16 bits\nCompression mode                         : Lossy\nStream size                              : 66.3 MiB (7%)\n &lt;a href=&quot;\nhttp://www.shotpix.com/images/93339715401127314625.png&quot; rel=&quot;nofollow&quot; target=&quot;_NEW&quot;&gt;\nhttp://www.shotpix.com/images/93339715401127314625.png&lt;/a&gt;\n &lt;a href=&quot;\nhttp://www.shotpix.com/images/98184973318892334704.png&quot; rel=&quot;nofollow&quot; target=&quot;_NEW&quot;&gt;\nhttp://www.shotpix.com/images/98184973318892334704.png&lt;/a&gt;\n &lt;a href=&quot;\nhttp://www.shotpix.com/images/73872068357465702144.png&quot; rel=&quot;nofollow&quot; target=&quot;_NEW&quot;&gt;\nhttp://www.shotpix.com/images/73872068357465702144.png&lt;/a&gt;\n &lt;a href=&quot;\nhttp://www.shotpix.com/images/45290573714618339201.png&quot; rel=&quot;nofollow&quot; target=&quot;_NEW&quot;&gt;\nhttp://www.shotpix.com/images/45290573714618339201.png&lt;/a&gt;\n &lt;a href=&quot;\nhttp://www.shotpix.com/images/07737478374819521051.png&quot; rel=&quot;nofollow&quot; target=&quot;_NEW&quot;&gt;\nhttp://www.shotpix.com/images/07737478374819521051.png&lt;/a&gt;\n &lt;a href=&quot;\nhttp://www.shotpix.com/images/75603925372838142081.png&quot; rel=&quot;nofollow&quot; target=&quot;_NEW&quot;&gt;\nhttp://www.shotpix.com/images/75603925372838142081.png&lt;/a&gt;\n &lt;a href=&quot;\nhttp://www.shotpix.com/images/63440507656485678685.png&quot; rel=&quot;nofollow&quot; target=&quot;_NEW&quot;&gt;\nhttp://www.shotpix.com/images/63440507656485678685.png&lt;/a&gt;\n                          \n                                      \n                                 Check the Sample First","torrent":{"xt":"urn:btih:88fb5e79e0e3cba87f12caf9b3c5d1cccc24e57a","amp;dn":"Cocktail+2012+Hindi+DvDrip+720p+x264...Hon3y","amp;tr":["udp%3A%2F%2Ftracker.openbittorrent.com%3A80","udp%3A%2F%2Fopen.demonii.com%3A1337","udp%3A%2F%2Ftracker.coppersurfer.tk%3A6969","udp%3A%2F%2Fexodus.desync.com%3A6969"],"infoHash":"88fb5e79e0e3cba87f12caf9b3c5d1cccc24e57a","infoHashBuffer":{"type":"Buffer","data":[136,251,94,121,224,227,203,168,127,18,202,249,179,197,209,204,204,36,229,122]},"announce":[],"urlList":[]}}